<?xml version="1.0" encoding="UTF-8"?>
<svg id="Ebene_2" data-name="Ebene 2" xmlns="http://www.w3.org/2000/svg" viewBox="0 0 940.07 198.41">
  <defs>
    <style>
      .cls-1 {
        fill: #d7d6d6;
      }

      .cls-1, .cls-2 {
        stroke-width: 0px;
      }

      .cls-2 {
        fill: #ee6d7a;
      }
    </style>
  </defs>
  <g id="Ebene_1-2" data-name="Ebene 1">
    <g>
      <path class="cls-2" d="M814.22,89.95l-58.39-58.39c-4.94-4.94-13.4-1.44-13.4,5.55v124.61c0,6.99,8.45,10.49,13.4,5.55l58.39-58.39c5.22-5.22,5.22-13.7,0-18.92Z"/>
      <path class="cls-2" d="M903.74.41h-124.61c-6.99,0-10.49,8.45-5.55,13.4l58.39,58.39c5.22,5.22,13.7,5.22,18.92,0l58.39-58.39c4.94-4.94,1.44-13.4-5.55-13.4Z"/>
      <path class="cls-2" d="M829.22,129.37l-55.64,55.64c-4.94,4.94-1.44,13.4,5.55,13.4h124.61c6.99,0,10.49-8.45,5.55-13.4l-55.64-55.64c-6.74-6.74-17.67-6.74-24.42,0Z"/>
      <path class="cls-2" d="M868.29,109.05l58.39,58.39c4.94,4.94,13.4,1.44,13.4-5.55V37.28c0-6.99-8.45-10.49-13.4-5.55l-58.39,58.39c-5.22,5.22-5.22,13.7,0,18.92Z"/>
    </g>
    <g>
      <path class="cls-1" d="M81.94,194.82h-17.34c-5.41,0-9.79-4.38-9.79-9.79V44.54c0-5.45-4.45-9.85-9.89-9.79l-35.03.36c-5.45.06-9.89-4.34-9.89-9.79v-12.13C0,7.79,4.38,3.41,9.79,3.41h126.96c5.41,0,9.79,4.38,9.79,9.79v12.13c0,5.45-4.45,9.85-9.89,9.79l-35.03-.36c-5.45-.06-9.89,4.34-9.89,9.79v140.49c0,5.41-4.38,9.79-9.79,9.79Z"/>
      <path class="cls-1" d="M194.12,194.82h-17.34c-5.41,0-9.79-4.38-9.79-9.79V13.2c0-5.41,4.38-9.79,9.79-9.79h17.34c5.41,0,9.79,4.38,9.79,9.79v171.84c0,5.41-4.38,9.79-9.79,9.79Z"/>
      <path class="cls-1" d="M325.74,198.23c-14.77,0-27.88-2.51-39.33-7.53-11.46-5.01-21.06-11.97-28.83-20.87-7.77-8.9-13.63-19.4-17.61-31.52-3.98-12.11-5.96-25.18-5.96-39.19s1.99-27.07,5.96-39.19c3.98-12.11,9.84-22.62,17.61-31.52,7.76-8.9,17.37-15.86,28.83-20.87,11.45-5.01,24.57-7.53,39.33-7.53,10.41,0,19.97,1.04,28.68,3.12,5.85,1.4,11.58,3.32,17.18,5.74,4.65,2.01,7.03,7.2,5.47,12.02l-3.06,9.47c-1.74,5.37-7.66,8.2-12.9,6.1-10.51-4.23-21.36-6.35-32.54-6.35-19.13,0-33.51,6.06-43.17,18.18-9.66,12.12-14.48,29.07-14.48,50.84s4.87,38.72,14.63,50.84c9.75,12.12,24.09,18.18,43.03,18.18,5.68,0,12.45-.95,20.31-2.84,4.57-1.1,9.12-2.59,13.66-4.46,5.33-2.19,11.38.75,13.03,6.26l2.91,9.71c1.4,4.66-.81,9.67-5.24,11.69-5.53,2.52-11.48,4.59-17.84,6.19-9.37,2.37-19.27,3.55-29.68,3.55Z"/>
      <path class="cls-1" d="M436.37,194.82h-17.34c-5.41,0-9.79-4.38-9.79-9.79V13.2c0-5.41,4.38-9.79,9.79-9.79h17.34c5.41,0,9.79,4.38,9.79,9.79v171.84c0,5.41-4.38,9.79-9.79,9.79ZM492.18,99.58l63.39,79.35c5.12,6.41.56,15.9-7.65,15.9h-17.51c-2.99,0-5.82-1.37-7.68-3.72l-65.67-83.07c-1.37-1.73-2.11-3.87-2.11-6.07v-16.17c0-2.4.88-4.71,2.47-6.5L521.9,6.7c1.86-2.09,4.52-3.29,7.32-3.29h15.36c8.43,0,12.92,9.95,7.34,16.27l-59.43,67.31c-3.15,3.56-3.28,8.88-.31,12.59Z"/>
      <path class="cls-1" d="M595.1,3.41h104.81c5.41,0,9.79,4.38,9.79,9.79v11.66c0,5.41-4.38,9.79-9.79,9.79h-69.03c-5.41,0-9.79,4.38-9.79,9.79v27.28c0,5.41,4.38,9.79,9.79,9.79h63.63c5.41,0,9.79,4.38,9.79,9.79v11.66c0,5.41-4.38,9.79-9.79,9.79h-63.63c-5.41,0-9.79,4.38-9.79,9.79v31.26c0,5.41,4.38,9.79,9.79,9.79h70.73c5.41,0,9.79,4.38,9.79,9.79v11.66c0,5.41-4.38,9.79-9.79,9.79h-106.52c-5.41,0-9.79-4.38-9.79-9.79V13.2c0-5.41,4.38-9.79,9.79-9.79Z"/>
    </g>
  </g>
</svg>