<?xml version="1.0" encoding="UTF-8"?>
<svg id="Ebene_2" data-name="Ebene 2" xmlns="http://www.w3.org/2000/svg" viewBox="0 0 197.64 198">
  <defs>
    <style>
      .cls-1 {
        fill: #ee6d7a;
        stroke-width: 0px;
      }
    </style>
  </defs>
  <g id="Ebene_1-2" data-name="Ebene 1">
    <g>
      <path class="cls-1" d="M71.79,89.54L13.4,31.15c-4.94-4.94-13.4-1.44-13.4,5.55v124.61c0,6.99,8.45,10.49,13.4,5.55l58.39-58.39c5.22-5.22,5.22-13.7,0-18.92Z"/>
      <path class="cls-1" d="M161.3,0H36.7c-6.99,0-10.49,8.45-5.55,13.4l58.39,58.39c5.22,5.22,13.7,5.22,18.92,0l58.39-58.39c4.94-4.94,1.44-13.4-5.55-13.4Z"/>
      <path class="cls-1" d="M86.79,128.96l-55.64,55.64c-4.94,4.94-1.44,13.4,5.55,13.4h124.61c6.99,0,10.49-8.45,5.55-13.4l-55.64-55.64c-6.74-6.74-17.67-6.74-24.42,0Z"/>
      <path class="cls-1" d="M125.85,108.64l58.39,58.39c4.94,4.94,13.4,1.44,13.4-5.55V36.88c0-6.99-8.45-10.49-13.4-5.55l-58.39,58.39c-5.22,5.22-5.22,13.7,0,18.92Z"/>
    </g>
  </g>
</svg>